<svg width="540" height="286" viewBox="0 0 540 286" fill="none" xmlns="http://www.w3.org/2000/svg">
<path d="M525 0H535V0.5H539.5V5.10717H540V15.3215H539.5V25.5358H540V35.7501H539.5V45.9643H540V56.1786H539.5V66.3929H540V76.6072H539.5V86.8215H540V97.0357H539.5V107.25H540V117.464H539.5V127.679H540V137.893H539.5V148.107H540V158.321H539.5V168.536H540V178.75H539.5V188.964H540V199.179H539.5V209.393H540V219.607H539.5V229.821H540V240.036H539.5V250.25H540V260.464H539.5V270.679H540V280.893H539.5V285.5H535V286H525V285.5H515V286H505V285.5H495V286H485V285.5H475V286H465V285.5H455V286H445V285.5H435V286H425V285.5H415V286H405V285.5H395V286H385V285.5H375V286H365V285.5H355V286H345V285.5H335V286H325V285.5H315V286H305V285.5H295V286H285V285.5H275V286H265V285.5H255V286H245V285.5H235V286H225V285.5H215V286H205V285.5H195V286H185V285.5H175V286H165V285.5H155V286H145V285.5H135V286H125V285.5H115V286H105V285.5H95V286H85V285.5H75V286H65V285.5H55V286H45V285.5H35V286H25V285.5H15V286H5V285.5H0.5V280.812H0V270.438H0.5V260.062H0V249.688H0.5V239.312H0V228.938H0.5V218.562H0V208.188H0.5V197.812H0V187.438H0.5V177.062H0V166.688H0.5V156.312H0V145.938H0.5V135.562H0V125.187H0.5V120C0.5 118.252 0.537545 116.512 0.611871 114.782L0.112332 114.76C0.263524 111.241 0.566291 107.761 1.01427 104.327L1.51007 104.392C1.96292 100.92 2.56477 97.4951 3.30899 94.1238L2.82075 94.016C3.57746 90.5881 4.48075 87.2152 5.52372 83.9043L6.00061 84.0546C7.04996 80.7234 8.24129 77.4552 9.56752 74.257L9.10566 74.0655C10.4476 70.8294 11.9271 67.6647 13.5368 64.5788L13.9801 64.81C15.5919 61.7203 17.3347 58.7097 19.2013 55.7858L18.7799 55.5167C20.6612 52.5696 22.6678 49.7102 24.7921 46.9459L25.1885 47.2506C27.3086 44.4917 29.5463 41.8281 31.8943 39.2671L31.5258 38.9292C33.8853 36.3556 36.3556 33.8853 38.9292 31.5258L39.267 31.8943C41.8281 29.5464 44.4917 27.3086 47.2506 25.1885L46.9459 24.7921C49.7102 22.6678 52.5696 20.6613 55.5167 18.7799L55.7858 19.2013C58.7097 17.3347 61.7202 15.5919 64.81 13.9801L64.5788 13.5368C67.6647 11.9271 70.8294 10.4476 74.0655 9.10566L74.257 9.56753C77.4551 8.2413 80.7234 7.04997 84.0545 6.00062L83.9043 5.52373C87.2152 4.48076 90.5881 3.57747 94.016 2.82076L94.1238 3.309C97.4951 2.56478 100.92 1.96293 104.392 1.51007L104.327 1.01427C107.761 0.566296 111.241 0.263528 114.76 0.112334L114.782 0.611873C116.512 0.537546 118.252 0.5 120 0.5H125V0H135V0.5H145V0H155V0.5H165V0H175V0.5H185V0H195V0.5H205V0H215V0.5H225V0H235V0.5H245V0H255V0.5H265V0H275V0.5H285V0H295V0.5H305V0H315V0.5H325V0H335V0.5H345V0H355V0.5H365V0H375V0.5H385V0H395V0.5H405V0H415V0.5H425V0H435V0.5H445V0H455V0.5H465V0H475V0.5H485V0H495V0.5H505V0H515V0.5H525V0Z" stroke="#FDFDFD" stroke-linejoin="round" stroke-dasharray="10 10"/>
</svg>
